<svg width="594" height="172" viewBox="0 0 594 172" fill="none" xmlns="http://www.w3.org/2000/svg">
<rect width="594" height="172" fill="white"/>
<path d="M133.72 88C133.833 88.2133 133.937 88.4367 134.03 88.67C134.13 88.8967 134.227 89.1267 134.32 89.36C134.413 89.12 134.51 88.8833 134.61 88.65C134.71 88.4167 134.817 88.1933 134.93 87.98L139.21 79.97C139.263 79.87 139.317 79.79 139.37 79.73C139.43 79.67 139.493 79.6267 139.56 79.6C139.633 79.5733 139.713 79.5567 139.8 79.55C139.887 79.5433 139.99 79.54 140.11 79.54H142.14V94H139.77V84.66C139.77 84.4867 139.773 84.2967 139.78 84.09C139.793 83.8833 139.81 83.6733 139.83 83.46L135.46 91.66C135.36 91.8467 135.23 91.9933 135.07 92.1C134.91 92.2 134.723 92.25 134.51 92.25H134.14C133.927 92.25 133.74 92.2 133.58 92.1C133.42 91.9933 133.29 91.8467 133.19 91.66L128.76 83.43C128.787 83.65 128.803 83.8667 128.81 84.08C128.823 84.2867 128.83 84.48 128.83 84.66V94H126.46V79.54H128.49C128.61 79.54 128.713 79.5433 128.8 79.55C128.887 79.5567 128.963 79.5733 129.03 79.6C129.103 79.6267 129.17 79.67 129.23 79.73C129.29 79.79 129.347 79.87 129.4 79.97L133.72 88ZM152.954 94H151.844C151.61 94 151.427 93.9667 151.294 93.9C151.16 93.8267 151.06 93.6833 150.994 93.47L150.774 92.74C150.514 92.9733 150.257 93.18 150.004 93.36C149.757 93.5333 149.5 93.68 149.234 93.8C148.967 93.92 148.684 94.01 148.384 94.07C148.084 94.13 147.75 94.16 147.384 94.16C146.95 94.16 146.55 94.1033 146.184 93.99C145.817 93.87 145.5 93.6933 145.234 93.46C144.974 93.2267 144.77 92.9367 144.624 92.59C144.477 92.2433 144.404 91.84 144.404 91.38C144.404 90.9933 144.504 90.6133 144.704 90.24C144.91 89.86 145.25 89.52 145.724 89.22C146.197 88.9133 146.827 88.66 147.614 88.46C148.4 88.26 149.377 88.1467 150.544 88.12V87.52C150.544 86.8333 150.397 86.3267 150.104 86C149.817 85.6667 149.397 85.5 148.844 85.5C148.444 85.5 148.11 85.5467 147.844 85.64C147.577 85.7333 147.344 85.84 147.144 85.96C146.95 86.0733 146.77 86.1767 146.604 86.27C146.437 86.3633 146.254 86.41 146.054 86.41C145.887 86.41 145.744 86.3667 145.624 86.28C145.504 86.1933 145.407 86.0867 145.334 85.96L144.884 85.17C146.064 84.09 147.487 83.55 149.154 83.55C149.754 83.55 150.287 83.65 150.754 83.85C151.227 84.0433 151.627 84.3167 151.954 84.67C152.28 85.0167 152.527 85.4333 152.694 85.92C152.867 86.4067 152.954 86.94 152.954 87.52V94ZM148.154 92.46C148.407 92.46 148.64 92.4367 148.854 92.39C149.067 92.3433 149.267 92.2733 149.454 92.18C149.647 92.0867 149.83 91.9733 150.004 91.84C150.184 91.7 150.364 91.5367 150.544 91.35V89.62C149.824 89.6533 149.22 89.7167 148.734 89.81C148.254 89.8967 147.867 90.01 147.574 90.15C147.28 90.29 147.07 90.4533 146.944 90.64C146.824 90.8267 146.764 91.03 146.764 91.25C146.764 91.6833 146.89 91.9933 147.144 92.18C147.404 92.3667 147.74 92.46 148.154 92.46ZM155.382 94V83.74H156.833C157.086 83.74 157.263 83.7867 157.363 83.88C157.463 83.9733 157.529 84.1333 157.563 84.36L157.713 85.6C158.079 84.9667 158.509 84.4667 159.003 84.1C159.496 83.7333 160.049 83.55 160.663 83.55C161.169 83.55 161.589 83.6667 161.923 83.9L161.603 85.75C161.583 85.87 161.539 85.9567 161.473 86.01C161.406 86.0567 161.316 86.08 161.203 86.08C161.103 86.08 160.966 86.0567 160.793 86.01C160.619 85.9633 160.389 85.94 160.103 85.94C159.589 85.94 159.149 86.0833 158.783 86.37C158.416 86.65 158.106 87.0633 157.853 87.61V94H155.382ZM170.757 85.91C170.683 86.0033 170.61 86.0767 170.537 86.13C170.47 86.1833 170.37 86.21 170.237 86.21C170.11 86.21 169.987 86.1733 169.867 86.1C169.747 86.02 169.603 85.9333 169.437 85.84C169.27 85.74 169.07 85.6533 168.837 85.58C168.61 85.5 168.327 85.46 167.987 85.46C167.553 85.46 167.173 85.54 166.847 85.7C166.52 85.8533 166.247 86.0767 166.027 86.37C165.813 86.6633 165.653 87.02 165.547 87.44C165.44 87.8533 165.387 88.3233 165.387 88.85C165.387 89.3967 165.443 89.8833 165.557 90.31C165.677 90.7367 165.847 91.0967 166.067 91.39C166.287 91.6767 166.553 91.8967 166.867 92.05C167.18 92.1967 167.533 92.27 167.927 92.27C168.32 92.27 168.637 92.2233 168.877 92.13C169.123 92.03 169.33 91.9233 169.497 91.81C169.663 91.69 169.807 91.5833 169.927 91.49C170.053 91.39 170.193 91.34 170.347 91.34C170.547 91.34 170.697 91.4167 170.797 91.57L171.507 92.47C171.233 92.79 170.937 93.06 170.617 93.28C170.297 93.4933 169.963 93.6667 169.617 93.8C169.277 93.9267 168.923 94.0167 168.557 94.07C168.19 94.1233 167.827 94.15 167.467 94.15C166.833 94.15 166.237 94.0333 165.677 93.8C165.117 93.56 164.627 93.2133 164.207 92.76C163.793 92.3067 163.463 91.7533 163.217 91.1C162.977 90.44 162.857 89.69 162.857 88.85C162.857 88.0967 162.963 87.4 163.177 86.76C163.397 86.1133 163.717 85.5567 164.137 85.09C164.557 84.6167 165.077 84.2467 165.697 83.98C166.317 83.7133 167.03 83.58 167.837 83.58C168.603 83.58 169.273 83.7033 169.847 83.95C170.427 84.1967 170.947 84.55 171.407 85.01L170.757 85.91ZM179.775 91.78H185.565V94H177.085V79.54H179.775V91.78ZM191.286 83.58C192.053 83.58 192.746 83.7033 193.366 83.95C193.993 84.1967 194.526 84.5467 194.966 85C195.406 85.4533 195.746 86.0067 195.986 86.66C196.226 87.3133 196.346 88.0433 196.346 88.85C196.346 89.6633 196.226 90.3967 195.986 91.05C195.746 91.7033 195.406 92.26 194.966 92.72C194.526 93.18 193.993 93.5333 193.366 93.78C192.746 94.0267 192.053 94.15 191.286 94.15C190.519 94.15 189.823 94.0267 189.196 93.78C188.569 93.5333 188.033 93.18 187.586 92.72C187.146 92.26 186.803 91.7033 186.556 91.05C186.316 90.3967 186.196 89.6633 186.196 88.85C186.196 88.0433 186.316 87.3133 186.556 86.66C186.803 86.0067 187.146 85.4533 187.586 85C188.033 84.5467 188.569 84.1967 189.196 83.95C189.823 83.7033 190.519 83.58 191.286 83.58ZM191.286 92.25C192.139 92.25 192.769 91.9633 193.176 91.39C193.589 90.8167 193.796 89.9767 193.796 88.87C193.796 87.7633 193.589 86.92 193.176 86.34C192.769 85.76 192.139 85.47 191.286 85.47C190.419 85.47 189.779 85.7633 189.366 86.35C188.953 86.93 188.746 87.77 188.746 88.87C188.746 89.97 188.953 90.81 189.366 91.39C189.779 91.9633 190.419 92.25 191.286 92.25ZM194.756 79.38L192.286 81.99C192.159 82.1233 192.036 82.2167 191.916 82.27C191.803 82.3167 191.653 82.34 191.466 82.34H189.986L191.406 79.91C191.506 79.7367 191.623 79.6067 191.756 79.52C191.889 79.4267 192.089 79.38 192.356 79.38H194.756ZM198.273 97.35V83.74H199.783C199.943 83.74 200.08 83.7767 200.193 83.85C200.306 83.9233 200.38 84.0367 200.413 84.19L200.613 85.14C201.026 84.6667 201.5 84.2833 202.033 83.99C202.573 83.6967 203.203 83.55 203.923 83.55C204.483 83.55 204.993 83.6667 205.453 83.9C205.92 84.1333 206.32 84.4733 206.653 84.92C206.993 85.36 207.253 85.9067 207.433 86.56C207.62 87.2067 207.713 87.95 207.713 88.79C207.713 89.5567 207.61 90.2667 207.403 90.92C207.196 91.5733 206.9 92.14 206.513 92.62C206.133 93.1 205.67 93.4767 205.123 93.75C204.583 94.0167 203.976 94.15 203.303 94.15C202.723 94.15 202.23 94.0633 201.823 93.89C201.423 93.71 201.063 93.4633 200.743 93.15V97.35H198.273ZM203.073 85.5C202.56 85.5 202.12 85.61 201.753 85.83C201.393 86.0433 201.056 86.3467 200.743 86.74V91.34C201.023 91.6867 201.326 91.93 201.653 92.07C201.986 92.2033 202.343 92.27 202.723 92.27C203.096 92.27 203.433 92.2 203.733 92.06C204.04 91.92 204.296 91.7067 204.503 91.42C204.716 91.1333 204.88 90.7733 204.993 90.34C205.106 89.9 205.163 89.3833 205.163 88.79C205.163 88.19 205.113 87.6833 205.013 87.27C204.92 86.85 204.783 86.51 204.603 86.25C204.423 85.99 204.203 85.8 203.943 85.68C203.69 85.56 203.4 85.5 203.073 85.5ZM213.822 83.58C214.468 83.58 215.062 83.6833 215.602 83.89C216.148 84.0967 216.618 84.4 217.012 84.8C217.405 85.1933 217.712 85.68 217.932 86.26C218.152 86.8333 218.262 87.49 218.262 88.23C218.262 88.4167 218.252 88.5733 218.232 88.7C218.218 88.82 218.188 88.9167 218.142 88.99C218.102 89.0567 218.045 89.1067 217.972 89.14C217.898 89.1667 217.805 89.18 217.692 89.18H211.352C211.425 90.2333 211.708 91.0067 212.202 91.5C212.695 91.9933 213.348 92.24 214.162 92.24C214.562 92.24 214.905 92.1933 215.192 92.1C215.485 92.0067 215.738 91.9033 215.952 91.79C216.172 91.6767 216.362 91.5733 216.522 91.48C216.688 91.3867 216.848 91.34 217.002 91.34C217.102 91.34 217.188 91.36 217.262 91.4C217.335 91.44 217.398 91.4967 217.452 91.57L218.172 92.47C217.898 92.79 217.592 93.06 217.252 93.28C216.912 93.4933 216.555 93.6667 216.182 93.8C215.815 93.9267 215.438 94.0167 215.052 94.07C214.672 94.1233 214.302 94.15 213.942 94.15C213.228 94.15 212.565 94.0333 211.952 93.8C211.338 93.56 210.805 93.21 210.352 92.75C209.898 92.2833 209.542 91.71 209.282 91.03C209.022 90.3433 208.892 89.55 208.892 88.65C208.892 87.95 209.005 87.2933 209.232 86.68C209.458 86.06 209.782 85.5233 210.202 85.07C210.628 84.61 211.145 84.2467 211.752 83.98C212.365 83.7133 213.055 83.58 213.822 83.58ZM213.872 85.35C213.152 85.35 212.588 85.5533 212.182 85.96C211.775 86.3667 211.515 86.9433 211.402 87.69H216.042C216.042 87.37 215.998 87.07 215.912 86.79C215.825 86.5033 215.692 86.2533 215.512 86.04C215.332 85.8267 215.105 85.66 214.832 85.54C214.558 85.4133 214.238 85.35 213.872 85.35ZM227.685 84.76C227.685 84.9333 227.652 85.1033 227.585 85.27C227.525 85.43 227.452 85.5667 227.365 85.68L222.485 92.1H227.545V94H219.615V92.97C219.615 92.8567 219.642 92.7233 219.695 92.57C219.749 92.41 219.832 92.26 219.945 92.12L224.865 85.63H219.905V83.74H227.685V84.76Z" fill="#101214"/>
<path d="M96.022 87.002C95.99 87.046 95.958 87.08 95.926 87.104C95.894 87.128 95.848 87.14 95.788 87.14C95.728 87.14 95.662 87.116 95.59 87.068C95.522 87.016 95.434 86.96 95.326 86.9C95.218 86.84 95.086 86.786 94.93 86.738C94.778 86.686 94.59 86.66 94.366 86.66C94.07 86.66 93.808 86.714 93.58 86.822C93.352 86.926 93.16 87.078 93.004 87.278C92.852 87.478 92.736 87.72 92.656 88.004C92.58 88.288 92.542 88.606 92.542 88.958C92.542 89.326 92.584 89.654 92.668 89.942C92.752 90.226 92.87 90.466 93.022 90.662C93.174 90.854 93.358 91.002 93.574 91.106C93.794 91.206 94.04 91.256 94.312 91.256C94.572 91.256 94.786 91.226 94.954 91.166C95.122 91.102 95.262 91.032 95.374 90.956C95.486 90.88 95.578 90.812 95.65 90.752C95.722 90.688 95.794 90.656 95.866 90.656C95.958 90.656 96.026 90.69 96.07 90.758L96.37 91.148C96.106 91.472 95.776 91.71 95.38 91.862C94.984 92.01 94.566 92.084 94.126 92.084C93.746 92.084 93.392 92.014 93.064 91.874C92.74 91.734 92.458 91.532 92.218 91.268C91.978 91 91.788 90.672 91.648 90.284C91.512 89.896 91.444 89.454 91.444 88.958C91.444 88.506 91.506 88.088 91.63 87.704C91.758 87.32 91.942 86.99 92.182 86.714C92.426 86.434 92.726 86.216 93.082 86.06C93.438 85.904 93.846 85.826 94.306 85.826C94.73 85.826 95.106 85.896 95.434 86.036C95.762 86.172 96.052 86.366 96.304 86.618L96.022 87.002ZM99.9376 85.826C100.382 85.826 100.782 85.9 101.138 86.048C101.498 86.196 101.802 86.406 102.05 86.678C102.302 86.95 102.494 87.28 102.626 87.668C102.762 88.052 102.83 88.482 102.83 88.958C102.83 89.438 102.762 89.87 102.626 90.254C102.494 90.638 102.302 90.966 102.05 91.238C101.802 91.51 101.498 91.72 101.138 91.868C100.782 92.012 100.382 92.084 99.9376 92.084C99.4936 92.084 99.0916 92.012 98.7316 91.868C98.3756 91.72 98.0716 91.51 97.8196 91.238C97.5676 90.966 97.3736 90.638 97.2376 90.254C97.1016 89.87 97.0336 89.438 97.0336 88.958C97.0336 88.482 97.1016 88.052 97.2376 87.668C97.3736 87.28 97.5676 86.95 97.8196 86.678C98.0716 86.406 98.3756 86.196 98.7316 86.048C99.0916 85.9 99.4936 85.826 99.9376 85.826ZM99.9376 91.25C100.538 91.25 100.986 91.05 101.282 90.65C101.578 90.246 101.726 89.684 101.726 88.964C101.726 88.24 101.578 87.676 101.282 87.272C100.986 86.868 100.538 86.666 99.9376 86.666C99.6336 86.666 99.3696 86.718 99.1456 86.822C98.9216 86.926 98.7336 87.076 98.5816 87.272C98.4336 87.468 98.3216 87.71 98.2456 87.998C98.1736 88.282 98.1376 88.604 98.1376 88.964C98.1376 89.324 98.1736 89.646 98.2456 89.93C98.3216 90.214 98.4336 90.454 98.5816 90.65C98.7336 90.842 98.9216 90.99 99.1456 91.094C99.3696 91.198 99.6336 91.25 99.9376 91.25ZM104.146 92V85.922H104.782C104.934 85.922 105.03 85.996 105.07 86.144L105.154 86.804C105.418 86.512 105.712 86.276 106.036 86.096C106.364 85.916 106.742 85.826 107.17 85.826C107.502 85.826 107.794 85.882 108.046 85.994C108.302 86.102 108.514 86.258 108.682 86.462C108.854 86.662 108.984 86.904 109.072 87.188C109.16 87.472 109.204 87.786 109.204 88.13V92H108.136V88.13C108.136 87.67 108.03 87.314 107.818 87.062C107.61 86.806 107.29 86.678 106.858 86.678C106.542 86.678 106.246 86.754 105.97 86.906C105.698 87.058 105.446 87.264 105.214 87.524V92H104.146ZM114.294 86.924C114.246 87.012 114.172 87.056 114.072 87.056C114.012 87.056 113.944 87.034 113.868 86.99C113.792 86.946 113.698 86.898 113.586 86.846C113.478 86.79 113.348 86.74 113.196 86.696C113.044 86.648 112.863 86.624 112.656 86.624C112.476 86.624 112.314 86.648 112.17 86.696C112.026 86.74 111.902 86.802 111.798 86.882C111.698 86.962 111.62 87.056 111.564 87.164C111.512 87.268 111.486 87.382 111.486 87.506C111.486 87.662 111.53 87.792 111.618 87.896C111.71 88 111.83 88.09 111.978 88.166C112.126 88.242 112.294 88.31 112.482 88.37C112.67 88.426 112.862 88.488 113.058 88.556C113.258 88.62 113.452 88.692 113.64 88.772C113.828 88.852 113.996 88.952 114.144 89.072C114.292 89.192 114.41 89.34 114.498 89.516C114.59 89.688 114.636 89.896 114.636 90.14C114.636 90.42 114.586 90.68 114.486 90.92C114.386 91.156 114.238 91.362 114.042 91.538C113.846 91.71 113.606 91.846 113.322 91.946C113.038 92.046 112.71 92.096 112.338 92.096C111.914 92.096 111.53 92.028 111.186 91.892C110.842 91.752 110.55 91.574 110.31 91.358L110.562 90.95C110.594 90.898 110.632 90.858 110.676 90.83C110.72 90.802 110.778 90.788 110.85 90.788C110.922 90.788 110.998 90.816 111.078 90.872C111.158 90.928 111.254 90.99 111.366 91.058C111.482 91.126 111.62 91.188 111.78 91.244C111.944 91.3 112.148 91.328 112.392 91.328C112.6 91.328 112.782 91.302 112.938 91.25C113.094 91.194 113.224 91.12 113.327 91.028C113.432 90.936 113.508 90.83 113.556 90.71C113.608 90.59 113.634 90.462 113.634 90.326C113.634 90.158 113.588 90.02 113.496 89.912C113.408 89.8 113.29 89.706 113.142 89.63C112.994 89.55 112.824 89.482 112.632 89.426C112.444 89.366 112.25 89.304 112.05 89.24C111.854 89.176 111.66 89.104 111.468 89.024C111.28 88.94 111.112 88.836 110.964 88.712C110.816 88.588 110.696 88.436 110.604 88.256C110.516 88.072 110.472 87.85 110.472 87.59C110.472 87.358 110.52 87.136 110.616 86.924C110.712 86.708 110.852 86.52 111.036 86.36C111.22 86.196 111.446 86.066 111.714 85.97C111.982 85.874 112.288 85.826 112.632 85.826C113.032 85.826 113.39 85.89 113.706 86.018C114.026 86.142 114.302 86.314 114.534 86.534L114.294 86.924ZM117.859 92.096C117.379 92.096 117.009 91.962 116.749 91.694C116.493 91.426 116.365 91.04 116.365 90.536V86.816H115.633C115.569 86.816 115.515 86.798 115.471 86.762C115.427 86.722 115.405 86.662 115.405 86.582V86.156L116.401 86.03L116.647 84.152C116.655 84.092 116.681 84.044 116.725 84.008C116.769 83.968 116.825 83.948 116.893 83.948H117.433V86.042H119.173V86.816H117.433V90.464C117.433 90.72 117.495 90.91 117.619 91.034C117.743 91.158 117.903 91.22 118.099 91.22C118.211 91.22 118.307 91.206 118.387 91.178C118.471 91.146 118.543 91.112 118.603 91.076C118.663 91.04 118.713 91.008 118.753 90.98C118.797 90.948 118.835 90.932 118.867 90.932C118.923 90.932 118.973 90.966 119.017 91.034L119.329 91.544C119.145 91.716 118.923 91.852 118.663 91.952C118.403 92.048 118.135 92.096 117.859 92.096Z" fill="#101214"/>
<path d="M234.9 88.556H240.054V89.366H234.9V88.556ZM234.9 86.546H240.054V87.356H234.9V86.546Z" fill="#101214"/>
<path d="M254.684 85.928C254.568 85.736 254.482 85.544 254.426 85.352C254.374 85.156 254.348 84.962 254.348 84.77C254.348 84.41 254.436 84.066 254.612 83.738C254.792 83.406 255.042 83.102 255.362 82.826L255.692 83.03C255.724 83.05 255.744 83.072 255.752 83.096C255.764 83.12 255.77 83.144 255.77 83.168C255.77 83.224 255.75 83.272 255.71 83.312C255.646 83.392 255.584 83.476 255.524 83.564C255.464 83.652 255.41 83.746 255.362 83.846C255.314 83.942 255.276 84.044 255.248 84.152C255.22 84.26 255.206 84.374 255.206 84.494C255.206 84.622 255.224 84.754 255.26 84.89C255.3 85.026 255.366 85.17 255.458 85.322C255.486 85.366 255.5 85.412 255.5 85.46C255.5 85.556 255.446 85.624 255.338 85.664L254.684 85.928ZM256.508 85.928C256.392 85.736 256.306 85.544 256.25 85.352C256.198 85.156 256.172 84.962 256.172 84.77C256.172 84.41 256.26 84.066 256.436 83.738C256.616 83.406 256.866 83.102 257.186 82.826L257.516 83.03C257.548 83.05 257.568 83.072 257.576 83.096C257.588 83.12 257.594 83.144 257.594 83.168C257.594 83.224 257.574 83.272 257.534 83.312C257.47 83.392 257.408 83.476 257.348 83.564C257.288 83.652 257.234 83.746 257.186 83.846C257.138 83.942 257.1 84.044 257.072 84.152C257.044 84.26 257.03 84.374 257.03 84.494C257.03 84.622 257.048 84.754 257.084 84.89C257.124 85.026 257.19 85.17 257.282 85.322C257.31 85.366 257.324 85.412 257.324 85.46C257.324 85.556 257.27 85.624 257.162 85.664L256.508 85.928ZM262.757 91.076C263.113 91.076 263.431 91.016 263.711 90.896C263.991 90.776 264.227 90.608 264.419 90.392C264.615 90.176 264.763 89.918 264.863 89.618C264.967 89.318 265.019 88.988 265.019 88.628V83.402H266.177V88.628C266.177 89.124 266.097 89.584 265.937 90.008C265.781 90.432 265.555 90.8 265.259 91.112C264.967 91.42 264.609 91.662 264.185 91.838C263.761 92.014 263.285 92.102 262.757 92.102C262.229 92.102 261.753 92.014 261.329 91.838C260.905 91.662 260.545 91.42 260.249 91.112C259.953 90.8 259.725 90.432 259.565 90.008C259.409 89.584 259.331 89.124 259.331 88.628V83.402H260.489V88.622C260.489 88.982 260.539 89.312 260.639 89.612C260.743 89.912 260.891 90.17 261.083 90.386C261.279 90.602 261.517 90.772 261.797 90.896C262.081 91.016 262.401 91.076 262.757 91.076ZM270.179 87.584L267.341 83.402H268.499C268.583 83.402 268.645 83.416 268.685 83.444C268.725 83.472 268.761 83.512 268.793 83.564L271.037 87.008C271.065 86.924 271.107 86.832 271.163 86.732L273.281 83.588C273.317 83.532 273.355 83.488 273.395 83.456C273.439 83.42 273.491 83.402 273.551 83.402H274.661L271.811 87.53L274.757 92H273.605C273.517 92 273.447 91.978 273.395 91.934C273.347 91.886 273.307 91.834 273.275 91.778L270.971 88.172C270.943 88.256 270.907 88.336 270.863 88.412L268.619 91.778C268.583 91.834 268.541 91.886 268.493 91.934C268.449 91.978 268.385 92 268.301 92H267.221L270.179 87.584ZM279.49 88.784V92H278.332V83.402H280.87C281.414 83.402 281.886 83.466 282.286 83.594C282.69 83.718 283.024 83.896 283.288 84.128C283.552 84.36 283.748 84.64 283.876 84.968C284.008 85.296 284.074 85.662 284.074 86.066C284.074 86.466 284.004 86.832 283.864 87.164C283.724 87.496 283.518 87.782 283.246 88.022C282.978 88.262 282.644 88.45 282.244 88.586C281.844 88.718 281.386 88.784 280.87 88.784H279.49ZM279.49 87.86H280.87C281.202 87.86 281.494 87.816 281.746 87.728C282.002 87.64 282.216 87.518 282.388 87.362C282.56 87.202 282.69 87.012 282.778 86.792C282.866 86.572 282.91 86.33 282.91 86.066C282.91 85.518 282.74 85.09 282.4 84.782C282.064 84.474 281.554 84.32 280.87 84.32H279.49V87.86ZM285.38 92V85.922H285.992C286.108 85.922 286.188 85.944 286.232 85.988C286.276 86.032 286.306 86.108 286.322 86.216L286.394 87.164C286.602 86.74 286.858 86.41 287.162 86.174C287.47 85.934 287.83 85.814 288.242 85.814C288.41 85.814 288.562 85.834 288.698 85.874C288.834 85.91 288.96 85.962 289.076 86.03L288.938 86.828C288.91 86.928 288.848 86.978 288.752 86.978C288.696 86.978 288.61 86.96 288.494 86.924C288.378 86.884 288.216 86.864 288.008 86.864C287.636 86.864 287.324 86.972 287.072 87.188C286.824 87.404 286.616 87.718 286.448 88.13V92H285.38ZM292.68 85.826C293.124 85.826 293.524 85.9 293.88 86.048C294.24 86.196 294.544 86.406 294.792 86.678C295.044 86.95 295.236 87.28 295.368 87.668C295.504 88.052 295.572 88.482 295.572 88.958C295.572 89.438 295.504 89.87 295.368 90.254C295.236 90.638 295.044 90.966 294.792 91.238C294.544 91.51 294.24 91.72 293.88 91.868C293.524 92.012 293.124 92.084 292.68 92.084C292.236 92.084 291.834 92.012 291.474 91.868C291.118 91.72 290.814 91.51 290.562 91.238C290.31 90.966 290.116 90.638 289.98 90.254C289.844 89.87 289.776 89.438 289.776 88.958C289.776 88.482 289.844 88.052 289.98 87.668C290.116 87.28 290.31 86.95 290.562 86.678C290.814 86.406 291.118 86.196 291.474 86.048C291.834 85.9 292.236 85.826 292.68 85.826ZM292.68 91.25C293.28 91.25 293.728 91.05 294.024 90.65C294.32 90.246 294.468 89.684 294.468 88.964C294.468 88.24 294.32 87.676 294.024 87.272C293.728 86.868 293.28 86.666 292.68 86.666C292.376 86.666 292.112 86.718 291.888 86.822C291.664 86.926 291.476 87.076 291.324 87.272C291.176 87.468 291.064 87.71 290.988 87.998C290.916 88.282 290.88 88.604 290.88 88.964C290.88 89.324 290.916 89.646 290.988 89.93C291.064 90.214 291.176 90.454 291.324 90.65C291.476 90.842 291.664 90.99 291.888 91.094C292.112 91.198 292.376 91.25 292.68 91.25ZM301.166 92C301.014 92 300.918 91.926 300.878 91.778L300.782 91.04C300.522 91.356 300.224 91.61 299.888 91.802C299.556 91.99 299.174 92.084 298.742 92.084C298.394 92.084 298.078 92.018 297.794 91.886C297.51 91.75 297.268 91.552 297.068 91.292C296.868 91.032 296.714 90.708 296.606 90.32C296.498 89.932 296.444 89.486 296.444 88.982C296.444 88.534 296.504 88.118 296.624 87.734C296.744 87.346 296.916 87.01 297.14 86.726C297.368 86.442 297.644 86.22 297.968 86.06C298.292 85.896 298.66 85.814 299.072 85.814C299.444 85.814 299.762 85.878 300.026 86.006C300.29 86.13 300.526 86.306 300.734 86.534V83.162H301.802V92H301.166ZM299.096 91.22C299.444 91.22 299.748 91.14 300.008 90.98C300.272 90.82 300.514 90.594 300.734 90.302V87.362C300.538 87.098 300.322 86.914 300.086 86.81C299.854 86.702 299.596 86.648 299.312 86.648C298.744 86.648 298.308 86.85 298.004 87.254C297.7 87.658 297.548 88.234 297.548 88.982C297.548 89.378 297.582 89.718 297.65 90.002C297.718 90.282 297.818 90.514 297.95 90.698C298.082 90.878 298.244 91.01 298.436 91.094C298.628 91.178 298.848 91.22 299.096 91.22ZM304.515 85.922V89.798C304.515 90.258 304.621 90.614 304.833 90.866C305.045 91.118 305.365 91.244 305.793 91.244C306.105 91.244 306.399 91.17 306.675 91.022C306.951 90.874 307.205 90.668 307.437 90.404V85.922H308.505V92H307.869C307.717 92 307.621 91.926 307.581 91.778L307.497 91.124C307.233 91.416 306.937 91.652 306.609 91.832C306.281 92.008 305.905 92.096 305.481 92.096C305.149 92.096 304.855 92.042 304.599 91.934C304.347 91.822 304.135 91.666 303.963 91.466C303.791 91.266 303.661 91.024 303.573 90.74C303.489 90.456 303.447 90.142 303.447 89.798V85.922H304.515ZM314.405 87.002C314.373 87.046 314.341 87.08 314.309 87.104C314.277 87.128 314.231 87.14 314.171 87.14C314.111 87.14 314.045 87.116 313.973 87.068C313.905 87.016 313.817 86.96 313.709 86.9C313.601 86.84 313.469 86.786 313.313 86.738C313.161 86.686 312.973 86.66 312.749 86.66C312.453 86.66 312.191 86.714 311.963 86.822C311.735 86.926 311.543 87.078 311.387 87.278C311.235 87.478 311.119 87.72 311.039 88.004C310.963 88.288 310.925 88.606 310.925 88.958C310.925 89.326 310.967 89.654 311.051 89.942C311.135 90.226 311.253 90.466 311.405 90.662C311.557 90.854 311.741 91.002 311.957 91.106C312.177 91.206 312.423 91.256 312.695 91.256C312.955 91.256 313.169 91.226 313.337 91.166C313.505 91.102 313.645 91.032 313.757 90.956C313.869 90.88 313.961 90.812 314.033 90.752C314.105 90.688 314.177 90.656 314.249 90.656C314.341 90.656 314.409 90.69 314.453 90.758L314.753 91.148C314.489 91.472 314.159 91.71 313.763 91.862C313.367 92.01 312.949 92.084 312.509 92.084C312.129 92.084 311.775 92.014 311.447 91.874C311.123 91.734 310.841 91.532 310.601 91.268C310.361 91 310.171 90.672 310.031 90.284C309.895 89.896 309.827 89.454 309.827 88.958C309.827 88.506 309.889 88.088 310.013 87.704C310.141 87.32 310.325 86.99 310.565 86.714C310.809 86.434 311.109 86.216 311.465 86.06C311.821 85.904 312.229 85.826 312.689 85.826C313.113 85.826 313.489 85.896 313.817 86.036C314.145 86.172 314.435 86.366 314.687 86.618L314.405 87.002ZM317.702 92.096C317.222 92.096 316.852 91.962 316.592 91.694C316.336 91.426 316.208 91.04 316.208 90.536V86.816H315.476C315.412 86.816 315.358 86.798 315.314 86.762C315.27 86.722 315.248 86.662 315.248 86.582V86.156L316.244 86.03L316.49 84.152C316.498 84.092 316.524 84.044 316.568 84.008C316.612 83.968 316.668 83.948 316.736 83.948H317.276V86.042H319.016V86.816H317.276V90.464C317.276 90.72 317.338 90.91 317.462 91.034C317.586 91.158 317.746 91.22 317.942 91.22C318.054 91.22 318.15 91.206 318.23 91.178C318.314 91.146 318.386 91.112 318.446 91.076C318.506 91.04 318.556 91.008 318.596 90.98C318.64 90.948 318.678 90.932 318.71 90.932C318.766 90.932 318.816 90.966 318.86 91.034L319.172 91.544C318.988 91.716 318.766 91.852 318.506 91.952C318.246 92.048 317.978 92.096 317.702 92.096ZM330.277 87.704C330.277 88.348 330.175 88.934 329.971 89.462C329.767 89.99 329.479 90.442 329.107 90.818C328.735 91.194 328.289 91.486 327.769 91.694C327.249 91.898 326.673 92 326.041 92H322.825V83.402H326.041C326.673 83.402 327.249 83.506 327.769 83.714C328.289 83.918 328.735 84.21 329.107 84.59C329.479 84.966 329.767 85.418 329.971 85.946C330.175 86.474 330.277 87.06 330.277 87.704ZM329.083 87.704C329.083 87.176 329.011 86.704 328.867 86.288C328.723 85.872 328.519 85.52 328.255 85.232C327.991 84.944 327.671 84.724 327.295 84.572C326.919 84.42 326.501 84.344 326.041 84.344H323.995V91.058H326.041C326.501 91.058 326.919 90.982 327.295 90.83C327.671 90.678 327.991 90.46 328.255 90.176C328.519 89.888 328.723 89.536 328.867 89.12C329.011 88.704 329.083 88.232 329.083 87.704ZM334.098 85.826C334.462 85.826 334.798 85.888 335.106 86.012C335.414 86.132 335.68 86.308 335.904 86.54C336.128 86.768 336.302 87.052 336.426 87.392C336.554 87.728 336.618 88.112 336.618 88.544C336.618 88.712 336.6 88.824 336.564 88.88C336.528 88.936 336.46 88.964 336.36 88.964H332.316C332.324 89.348 332.376 89.682 332.472 89.966C332.568 90.25 332.7 90.488 332.868 90.68C333.036 90.868 333.236 91.01 333.468 91.106C333.7 91.198 333.96 91.244 334.248 91.244C334.516 91.244 334.746 91.214 334.938 91.154C335.134 91.09 335.302 91.022 335.442 90.95C335.582 90.878 335.698 90.812 335.79 90.752C335.886 90.688 335.968 90.656 336.036 90.656C336.124 90.656 336.192 90.69 336.24 90.758L336.54 91.148C336.408 91.308 336.25 91.448 336.066 91.568C335.882 91.684 335.684 91.78 335.472 91.856C335.264 91.932 335.048 91.988 334.824 92.024C334.6 92.064 334.378 92.084 334.158 92.084C333.738 92.084 333.35 92.014 332.994 91.874C332.642 91.73 332.336 91.522 332.076 91.25C331.82 90.974 331.62 90.634 331.476 90.23C331.332 89.826 331.26 89.362 331.26 88.838C331.26 88.414 331.324 88.018 331.452 87.65C331.584 87.282 331.772 86.964 332.016 86.696C332.26 86.424 332.558 86.212 332.91 86.06C333.262 85.904 333.658 85.826 334.098 85.826ZM334.122 86.612C333.606 86.612 333.2 86.762 332.904 87.062C332.608 87.358 332.424 87.77 332.352 88.298H335.658C335.658 88.05 335.624 87.824 335.556 87.62C335.488 87.412 335.388 87.234 335.256 87.086C335.124 86.934 334.962 86.818 334.77 86.738C334.582 86.654 334.366 86.612 334.122 86.612ZM341.465 86.924C341.417 87.012 341.343 87.056 341.243 87.056C341.183 87.056 341.115 87.034 341.039 86.99C340.963 86.946 340.869 86.898 340.757 86.846C340.649 86.79 340.519 86.74 340.367 86.696C340.215 86.648 340.035 86.624 339.827 86.624C339.647 86.624 339.485 86.648 339.341 86.696C339.197 86.74 339.073 86.802 338.969 86.882C338.869 86.962 338.791 87.056 338.735 87.164C338.683 87.268 338.657 87.382 338.657 87.506C338.657 87.662 338.701 87.792 338.789 87.896C338.881 88 339.001 88.09 339.149 88.166C339.297 88.242 339.465 88.31 339.653 88.37C339.841 88.426 340.033 88.488 340.229 88.556C340.429 88.62 340.623 88.692 340.811 88.772C340.999 88.852 341.167 88.952 341.315 89.072C341.463 89.192 341.581 89.34 341.669 89.516C341.761 89.688 341.807 89.896 341.807 90.14C341.807 90.42 341.757 90.68 341.657 90.92C341.557 91.156 341.409 91.362 341.213 91.538C341.017 91.71 340.777 91.846 340.493 91.946C340.209 92.046 339.881 92.096 339.509 92.096C339.085 92.096 338.701 92.028 338.357 91.892C338.013 91.752 337.721 91.574 337.481 91.358L337.733 90.95C337.765 90.898 337.803 90.858 337.847 90.83C337.891 90.802 337.949 90.788 338.021 90.788C338.093 90.788 338.169 90.816 338.249 90.872C338.329 90.928 338.425 90.99 338.537 91.058C338.653 91.126 338.791 91.188 338.951 91.244C339.115 91.3 339.319 91.328 339.563 91.328C339.771 91.328 339.953 91.302 340.109 91.25C340.265 91.194 340.395 91.12 340.499 91.028C340.603 90.936 340.679 90.83 340.727 90.71C340.779 90.59 340.805 90.462 340.805 90.326C340.805 90.158 340.759 90.02 340.667 89.912C340.579 89.8 340.461 89.706 340.313 89.63C340.165 89.55 339.995 89.482 339.803 89.426C339.615 89.366 339.421 89.304 339.221 89.24C339.025 89.176 338.831 89.104 338.639 89.024C338.451 88.94 338.283 88.836 338.135 88.712C337.987 88.588 337.867 88.436 337.775 88.256C337.687 88.072 337.643 87.85 337.643 87.59C337.643 87.358 337.691 87.136 337.787 86.924C337.883 86.708 338.023 86.52 338.207 86.36C338.391 86.196 338.617 86.066 338.885 85.97C339.153 85.874 339.459 85.826 339.803 85.826C340.203 85.826 340.561 85.89 340.877 86.018C341.197 86.142 341.473 86.314 341.705 86.534L341.465 86.924ZM344.377 85.922V92H343.309V85.922H344.377ZM344.617 84.014C344.617 84.118 344.595 84.216 344.551 84.308C344.511 84.396 344.455 84.476 344.383 84.548C344.315 84.616 344.235 84.67 344.143 84.71C344.051 84.75 343.953 84.77 343.849 84.77C343.745 84.77 343.647 84.75 343.555 84.71C343.467 84.67 343.387 84.616 343.315 84.548C343.247 84.476 343.193 84.396 343.153 84.308C343.113 84.216 343.093 84.118 343.093 84.014C343.093 83.91 343.113 83.812 343.153 83.72C343.193 83.624 343.247 83.542 343.315 83.474C343.387 83.402 343.467 83.346 343.555 83.306C343.647 83.266 343.745 83.246 343.849 83.246C343.953 83.246 344.051 83.266 344.143 83.306C344.235 83.346 344.315 83.402 344.383 83.474C344.455 83.542 344.511 83.624 344.551 83.72C344.595 83.812 344.617 83.91 344.617 84.014ZM348.305 85.82C348.569 85.82 348.815 85.85 349.043 85.91C349.275 85.966 349.485 86.05 349.673 86.162H351.323V86.558C351.323 86.69 351.239 86.774 351.071 86.81L350.381 86.906C350.517 87.166 350.585 87.456 350.585 87.776C350.585 88.072 350.527 88.342 350.411 88.586C350.299 88.826 350.141 89.032 349.937 89.204C349.737 89.376 349.497 89.508 349.217 89.6C348.941 89.692 348.637 89.738 348.305 89.738C348.021 89.738 347.753 89.704 347.501 89.636C347.373 89.716 347.275 89.802 347.207 89.894C347.143 89.986 347.111 90.076 347.111 90.164C347.111 90.308 347.169 90.418 347.285 90.494C347.401 90.566 347.555 90.618 347.747 90.65C347.939 90.682 348.157 90.702 348.401 90.71C348.645 90.718 348.893 90.732 349.145 90.752C349.401 90.768 349.651 90.798 349.895 90.842C350.139 90.886 350.357 90.958 350.549 91.058C350.741 91.158 350.895 91.296 351.011 91.472C351.127 91.648 351.185 91.876 351.185 92.156C351.185 92.416 351.119 92.668 350.987 92.912C350.859 93.156 350.673 93.372 350.429 93.56C350.185 93.752 349.887 93.904 349.535 94.016C349.183 94.132 348.785 94.19 348.341 94.19C347.897 94.19 347.507 94.146 347.171 94.058C346.839 93.97 346.563 93.852 346.343 93.704C346.123 93.556 345.957 93.384 345.845 93.188C345.737 92.996 345.683 92.794 345.683 92.582C345.683 92.282 345.777 92.028 345.965 91.82C346.157 91.608 346.419 91.44 346.751 91.316C346.579 91.236 346.441 91.13 346.337 90.998C346.237 90.862 346.187 90.682 346.187 90.458C346.187 90.37 346.203 90.28 346.235 90.188C346.267 90.092 346.315 89.998 346.379 89.906C346.447 89.814 346.529 89.726 346.625 89.642C346.721 89.558 346.833 89.484 346.961 89.42C346.661 89.252 346.425 89.03 346.253 88.754C346.085 88.474 346.001 88.148 346.001 87.776C346.001 87.48 346.057 87.212 346.169 86.972C346.285 86.728 346.445 86.522 346.649 86.354C346.853 86.182 347.095 86.05 347.375 85.958C347.659 85.866 347.969 85.82 348.305 85.82ZM350.201 92.33C350.201 92.178 350.159 92.056 350.075 91.964C349.991 91.872 349.877 91.802 349.733 91.754C349.589 91.702 349.423 91.664 349.235 91.64C349.047 91.616 348.849 91.6 348.641 91.592C348.433 91.58 348.221 91.568 348.005 91.556C347.789 91.544 347.583 91.522 347.387 91.49C347.159 91.598 346.973 91.73 346.829 91.886C346.689 92.042 346.619 92.228 346.619 92.444C346.619 92.58 346.653 92.706 346.721 92.822C346.793 92.942 346.901 93.044 347.045 93.128C347.189 93.216 347.369 93.284 347.585 93.332C347.805 93.384 348.063 93.41 348.359 93.41C348.647 93.41 348.905 93.384 349.133 93.332C349.361 93.28 349.553 93.206 349.709 93.11C349.869 93.014 349.991 92.9 350.075 92.768C350.159 92.636 350.201 92.49 350.201 92.33ZM348.305 89.03C348.521 89.03 348.711 89 348.875 88.94C349.043 88.88 349.183 88.796 349.295 88.688C349.407 88.58 349.491 88.452 349.547 88.304C349.603 88.152 349.631 87.986 349.631 87.806C349.631 87.434 349.517 87.138 349.289 86.918C349.065 86.698 348.737 86.588 348.305 86.588C347.877 86.588 347.549 86.698 347.321 86.918C347.097 87.138 346.985 87.434 346.985 87.806C346.985 87.986 347.013 88.152 347.069 88.304C347.129 88.452 347.215 88.58 347.327 88.688C347.439 88.796 347.577 88.88 347.741 88.94C347.905 89 348.093 89.03 348.305 89.03ZM352.388 92V85.922H353.024C353.176 85.922 353.272 85.996 353.312 86.144L353.396 86.804C353.66 86.512 353.954 86.276 354.278 86.096C354.606 85.916 354.984 85.826 355.412 85.826C355.744 85.826 356.036 85.882 356.288 85.994C356.544 86.102 356.756 86.258 356.924 86.462C357.096 86.662 357.226 86.904 357.314 87.188C357.402 87.472 357.446 87.786 357.446 88.13V92H356.378V88.13C356.378 87.67 356.272 87.314 356.06 87.062C355.852 86.806 355.532 86.678 355.1 86.678C354.784 86.678 354.488 86.754 354.212 86.906C353.94 87.058 353.688 87.264 353.456 87.524V92H352.388ZM361.462 85.826C361.826 85.826 362.162 85.888 362.47 86.012C362.778 86.132 363.044 86.308 363.268 86.54C363.492 86.768 363.666 87.052 363.79 87.392C363.918 87.728 363.982 88.112 363.982 88.544C363.982 88.712 363.964 88.824 363.928 88.88C363.892 88.936 363.824 88.964 363.724 88.964H359.68C359.688 89.348 359.74 89.682 359.836 89.966C359.932 90.25 360.064 90.488 360.232 90.68C360.4 90.868 360.6 91.01 360.832 91.106C361.064 91.198 361.324 91.244 361.612 91.244C361.88 91.244 362.11 91.214 362.302 91.154C362.498 91.09 362.666 91.022 362.806 90.95C362.946 90.878 363.062 90.812 363.154 90.752C363.25 90.688 363.332 90.656 363.4 90.656C363.488 90.656 363.556 90.69 363.604 90.758L363.904 91.148C363.772 91.308 363.614 91.448 363.43 91.568C363.246 91.684 363.048 91.78 362.836 91.856C362.628 91.932 362.412 91.988 362.188 92.024C361.964 92.064 361.742 92.084 361.522 92.084C361.102 92.084 360.714 92.014 360.358 91.874C360.006 91.73 359.7 91.522 359.44 91.25C359.184 90.974 358.984 90.634 358.84 90.23C358.696 89.826 358.624 89.362 358.624 88.838C358.624 88.414 358.688 88.018 358.816 87.65C358.948 87.282 359.136 86.964 359.38 86.696C359.624 86.424 359.922 86.212 360.274 86.06C360.626 85.904 361.022 85.826 361.462 85.826ZM361.486 86.612C360.97 86.612 360.564 86.762 360.268 87.062C359.972 87.358 359.788 87.77 359.716 88.298H363.022C363.022 88.05 362.988 87.824 362.92 87.62C362.852 87.412 362.752 87.234 362.62 87.086C362.488 86.934 362.326 86.818 362.134 86.738C361.946 86.654 361.73 86.612 361.486 86.612ZM365.349 92V85.922H365.961C366.077 85.922 366.157 85.944 366.201 85.988C366.245 86.032 366.275 86.108 366.291 86.216L366.363 87.164C366.571 86.74 366.827 86.41 367.131 86.174C367.439 85.934 367.799 85.814 368.211 85.814C368.379 85.814 368.531 85.834 368.667 85.874C368.803 85.91 368.929 85.962 369.045 86.03L368.907 86.828C368.879 86.928 368.817 86.978 368.721 86.978C368.665 86.978 368.579 86.96 368.463 86.924C368.347 86.884 368.185 86.864 367.977 86.864C367.605 86.864 367.293 86.972 367.041 87.188C366.793 87.404 366.585 87.718 366.417 88.13V92H365.349ZM370.939 82.952C371.055 83.144 371.139 83.336 371.191 83.528C371.243 83.72 371.269 83.912 371.269 84.104C371.269 84.468 371.179 84.816 370.999 85.148C370.823 85.476 370.577 85.778 370.261 86.054L369.931 85.85C369.899 85.83 369.877 85.808 369.865 85.784C369.857 85.76 369.853 85.736 369.853 85.712C369.853 85.656 369.873 85.608 369.913 85.568C369.977 85.492 370.039 85.41 370.099 85.322C370.159 85.23 370.213 85.136 370.261 85.04C370.309 84.94 370.347 84.836 370.375 84.728C370.403 84.62 370.417 84.506 370.417 84.386C370.417 84.258 370.397 84.126 370.357 83.99C370.321 83.854 370.257 83.71 370.165 83.558C370.137 83.514 370.123 83.47 370.123 83.426C370.123 83.33 370.177 83.26 370.285 83.216L370.939 82.952ZM372.763 82.952C372.879 83.144 372.963 83.336 373.015 83.528C373.067 83.72 373.093 83.912 373.093 84.104C373.093 84.468 373.003 84.816 372.823 85.148C372.647 85.476 372.401 85.778 372.085 86.054L371.755 85.85C371.723 85.83 371.701 85.808 371.689 85.784C371.681 85.76 371.677 85.736 371.677 85.712C371.677 85.656 371.697 85.608 371.737 85.568C371.801 85.492 371.863 85.41 371.923 85.322C371.983 85.23 372.037 85.136 372.085 85.04C372.133 84.94 372.171 84.836 372.199 84.728C372.227 84.62 372.241 84.506 372.241 84.386C372.241 84.258 372.221 84.126 372.181 83.99C372.145 83.854 372.081 83.71 371.989 83.558C371.961 83.514 371.947 83.47 371.947 83.426C371.947 83.33 372.001 83.26 372.109 83.216L372.763 82.952ZM372.877 91.262C372.877 91.17 372.893 91.084 372.925 91.004C372.961 90.92 373.009 90.848 373.069 90.788C373.133 90.724 373.209 90.674 373.297 90.638C373.385 90.602 373.481 90.584 373.585 90.584C373.705 90.584 373.811 90.606 373.903 90.65C373.999 90.694 374.077 90.756 374.137 90.836C374.201 90.912 374.249 91.002 374.281 91.106C374.313 91.206 374.329 91.316 374.329 91.436C374.329 91.616 374.303 91.804 374.251 92C374.199 92.192 374.125 92.382 374.029 92.57C373.933 92.762 373.813 92.948 373.669 93.128C373.529 93.308 373.369 93.474 373.189 93.626L373.009 93.452C372.957 93.404 372.931 93.348 372.931 93.284C372.931 93.232 372.959 93.178 373.015 93.122C373.055 93.078 373.105 93.018 373.165 92.942C373.229 92.87 373.293 92.786 373.357 92.69C373.421 92.594 373.479 92.488 373.531 92.372C373.587 92.256 373.627 92.132 373.651 92H373.573C373.469 92 373.375 91.982 373.291 91.946C373.207 91.91 373.133 91.86 373.069 91.796C373.009 91.728 372.961 91.65 372.925 91.562C372.893 91.47 372.877 91.37 372.877 91.262ZM377.86 85.928C377.744 85.736 377.658 85.544 377.602 85.352C377.55 85.156 377.524 84.962 377.524 84.77C377.524 84.41 377.612 84.066 377.788 83.738C377.968 83.406 378.218 83.102 378.538 82.826L378.868 83.03C378.9 83.05 378.92 83.072 378.928 83.096C378.94 83.12 378.946 83.144 378.946 83.168C378.946 83.224 378.926 83.272 378.886 83.312C378.822 83.392 378.76 83.476 378.7 83.564C378.64 83.652 378.586 83.746 378.538 83.846C378.49 83.942 378.452 84.044 378.424 84.152C378.396 84.26 378.382 84.374 378.382 84.494C378.382 84.622 378.4 84.754 378.436 84.89C378.476 85.026 378.542 85.17 378.634 85.322C378.662 85.366 378.676 85.412 378.676 85.46C378.676 85.556 378.622 85.624 378.514 85.664L377.86 85.928ZM379.684 85.928C379.568 85.736 379.482 85.544 379.426 85.352C379.374 85.156 379.348 84.962 379.348 84.77C379.348 84.41 379.436 84.066 379.612 83.738C379.792 83.406 380.042 83.102 380.362 82.826L380.692 83.03C380.724 83.05 380.744 83.072 380.752 83.096C380.764 83.12 380.77 83.144 380.77 83.168C380.77 83.224 380.75 83.272 380.71 83.312C380.646 83.392 380.584 83.476 380.524 83.564C380.464 83.652 380.41 83.746 380.362 83.846C380.314 83.942 380.276 84.044 380.248 84.152C380.22 84.26 380.206 84.374 380.206 84.494C380.206 84.622 380.224 84.754 380.26 84.89C380.3 85.026 380.366 85.17 380.458 85.322C380.486 85.366 380.5 85.412 380.5 85.46C380.5 85.556 380.446 85.624 380.338 85.664L379.684 85.928ZM387.889 83.402V84.35H383.761V87.356H387.289V88.304H383.761V92H382.591V83.402H387.889ZM389.78 85.922V89.798C389.78 90.258 389.886 90.614 390.098 90.866C390.31 91.118 390.63 91.244 391.058 91.244C391.37 91.244 391.664 91.17 391.94 91.022C392.216 90.874 392.47 90.668 392.702 90.404V85.922H393.77V92H393.134C392.982 92 392.886 91.926 392.846 91.778L392.762 91.124C392.498 91.416 392.202 91.652 391.874 91.832C391.546 92.008 391.17 92.096 390.746 92.096C390.414 92.096 390.12 92.042 389.864 91.934C389.612 91.822 389.4 91.666 389.228 91.466C389.056 91.266 388.926 91.024 388.838 90.74C388.754 90.456 388.712 90.142 388.712 89.798V85.922H389.78ZM396.712 83.162V92H395.644V83.162H396.712ZM399.783 83.162V92H398.715V83.162H399.783ZM408.557 84.746C408.521 84.806 408.483 84.852 408.443 84.884C408.403 84.912 408.351 84.926 408.287 84.926C408.219 84.926 408.139 84.892 408.047 84.824C407.959 84.756 407.845 84.682 407.705 84.602C407.569 84.518 407.403 84.442 407.207 84.374C407.015 84.306 406.781 84.272 406.505 84.272C406.245 84.272 406.015 84.308 405.815 84.38C405.615 84.448 405.447 84.542 405.311 84.662C405.179 84.782 405.079 84.924 405.011 85.088C404.943 85.248 404.909 85.422 404.909 85.61C404.909 85.85 404.967 86.05 405.083 86.21C405.203 86.366 405.359 86.5 405.551 86.612C405.747 86.724 405.967 86.822 406.211 86.906C406.459 86.986 406.711 87.07 406.967 87.158C407.227 87.246 407.479 87.346 407.723 87.458C407.971 87.566 408.191 87.704 408.383 87.872C408.579 88.04 408.735 88.246 408.851 88.49C408.971 88.734 409.031 89.034 409.031 89.39C409.031 89.766 408.967 90.12 408.839 90.452C408.711 90.78 408.523 91.066 408.275 91.31C408.031 91.554 407.729 91.746 407.369 91.886C407.013 92.026 406.607 92.096 406.151 92.096C405.595 92.096 405.087 91.996 404.627 91.796C404.171 91.592 403.781 91.318 403.457 90.974L403.793 90.422C403.825 90.378 403.863 90.342 403.907 90.314C403.955 90.282 404.007 90.266 404.063 90.266C404.147 90.266 404.243 90.312 404.351 90.404C404.459 90.492 404.593 90.59 404.753 90.698C404.917 90.806 405.113 90.906 405.341 90.998C405.573 91.086 405.855 91.13 406.187 91.13C406.463 91.13 406.709 91.092 406.925 91.016C407.141 90.94 407.323 90.834 407.471 90.698C407.623 90.558 407.739 90.392 407.819 90.2C407.899 90.008 407.939 89.794 407.939 89.558C407.939 89.298 407.879 89.086 407.759 88.922C407.643 88.754 407.489 88.614 407.297 88.502C407.105 88.39 406.885 88.296 406.637 88.22C406.393 88.14 406.141 88.06 405.881 87.98C405.625 87.896 405.373 87.8 405.125 87.692C404.881 87.584 404.663 87.444 404.471 87.272C404.279 87.1 404.123 86.886 404.003 86.63C403.887 86.37 403.829 86.05 403.829 85.67C403.829 85.366 403.887 85.072 404.003 84.788C404.123 84.504 404.295 84.252 404.519 84.032C404.743 83.812 405.019 83.636 405.347 83.504C405.679 83.372 406.059 83.306 406.487 83.306C406.967 83.306 407.405 83.382 407.801 83.534C408.197 83.686 408.543 83.906 408.839 84.194L408.557 84.746ZM412.191 92.096C411.711 92.096 411.341 91.962 411.081 91.694C410.825 91.426 410.697 91.04 410.697 90.536V86.816H409.965C409.901 86.816 409.847 86.798 409.803 86.762C409.759 86.722 409.737 86.662 409.737 86.582V86.156L410.733 86.03L410.979 84.152C410.987 84.092 411.013 84.044 411.057 84.008C411.101 83.968 411.157 83.948 411.225 83.948H411.765V86.042H413.505V86.816H411.765V90.464C411.765 90.72 411.827 90.91 411.951 91.034C412.075 91.158 412.235 91.22 412.431 91.22C412.543 91.22 412.639 91.206 412.719 91.178C412.803 91.146 412.875 91.112 412.935 91.076C412.995 91.04 413.045 91.008 413.085 90.98C413.129 90.948 413.167 90.932 413.199 90.932C413.255 90.932 413.305 90.966 413.349 91.034L413.661 91.544C413.477 91.716 413.255 91.852 412.995 91.952C412.735 92.048 412.467 92.096 412.191 92.096ZM419.289 92H418.815C418.711 92 418.627 91.984 418.563 91.952C418.499 91.92 418.457 91.852 418.437 91.748L418.317 91.184C418.157 91.328 418.001 91.458 417.849 91.574C417.697 91.686 417.537 91.782 417.369 91.862C417.201 91.938 417.021 91.996 416.829 92.036C416.641 92.076 416.431 92.096 416.199 92.096C415.963 92.096 415.741 92.064 415.533 92C415.329 91.932 415.151 91.832 414.999 91.7C414.847 91.568 414.725 91.402 414.633 91.202C414.545 90.998 414.501 90.758 414.501 90.482C414.501 90.242 414.567 90.012 414.699 89.792C414.831 89.568 415.043 89.37 415.335 89.198C415.631 89.026 416.017 88.886 416.493 88.778C416.969 88.666 417.551 88.602 418.239 88.586V88.112C418.239 87.64 418.137 87.284 417.933 87.044C417.733 86.8 417.435 86.678 417.039 86.678C416.779 86.678 416.559 86.712 416.379 86.78C416.203 86.844 416.049 86.918 415.917 87.002C415.789 87.082 415.677 87.156 415.581 87.224C415.489 87.288 415.397 87.32 415.305 87.32C415.233 87.32 415.169 87.302 415.113 87.266C415.061 87.226 415.019 87.178 414.987 87.122L414.795 86.78C415.131 86.456 415.493 86.214 415.881 86.054C416.269 85.894 416.699 85.814 417.171 85.814C417.511 85.814 417.813 85.87 418.077 85.982C418.341 86.094 418.563 86.25 418.743 86.45C418.923 86.65 419.059 86.892 419.151 87.176C419.243 87.46 419.289 87.772 419.289 88.112V92ZM416.517 91.346C416.705 91.346 416.877 91.328 417.033 91.292C417.189 91.252 417.335 91.198 417.471 91.13C417.611 91.058 417.743 90.972 417.867 90.872C417.995 90.772 418.119 90.658 418.239 90.53V89.264C417.747 89.28 417.329 89.32 416.985 89.384C416.641 89.444 416.361 89.524 416.145 89.624C415.929 89.724 415.771 89.842 415.671 89.978C415.575 90.114 415.527 90.266 415.527 90.434C415.527 90.594 415.553 90.732 415.605 90.848C415.657 90.964 415.727 91.06 415.815 91.136C415.903 91.208 416.007 91.262 416.127 91.298C416.247 91.33 416.377 91.346 416.517 91.346ZM425.053 87.002C425.021 87.046 424.989 87.08 424.957 87.104C424.925 87.128 424.879 87.14 424.819 87.14C424.759 87.14 424.693 87.116 424.621 87.068C424.553 87.016 424.465 86.96 424.357 86.9C424.249 86.84 424.117 86.786 423.961 86.738C423.809 86.686 423.621 86.66 423.397 86.66C423.101 86.66 422.839 86.714 422.611 86.822C422.383 86.926 422.191 87.078 422.035 87.278C421.883 87.478 421.767 87.72 421.687 88.004C421.611 88.288 421.573 88.606 421.573 88.958C421.573 89.326 421.615 89.654 421.699 89.942C421.783 90.226 421.901 90.466 422.053 90.662C422.205 90.854 422.389 91.002 422.605 91.106C422.825 91.206 423.071 91.256 423.343 91.256C423.603 91.256 423.817 91.226 423.985 91.166C424.153 91.102 424.293 91.032 424.405 90.956C424.517 90.88 424.609 90.812 424.681 90.752C424.753 90.688 424.825 90.656 424.897 90.656C424.989 90.656 425.057 90.69 425.101 90.758L425.401 91.148C425.137 91.472 424.807 91.71 424.411 91.862C424.015 92.01 423.597 92.084 423.157 92.084C422.777 92.084 422.423 92.014 422.095 91.874C421.771 91.734 421.489 91.532 421.249 91.268C421.009 91 420.819 90.672 420.679 90.284C420.543 89.896 420.475 89.454 420.475 88.958C420.475 88.506 420.537 88.088 420.661 87.704C420.789 87.32 420.973 86.99 421.213 86.714C421.457 86.434 421.757 86.216 422.113 86.06C422.469 85.904 422.877 85.826 423.337 85.826C423.761 85.826 424.137 85.896 424.465 86.036C424.793 86.172 425.083 86.366 425.335 86.618L425.053 87.002ZM427.619 83.162V88.364H427.895C427.975 88.364 428.041 88.354 428.093 88.334C428.145 88.31 428.203 88.264 428.267 88.196L430.187 86.138C430.247 86.074 430.307 86.022 430.367 85.982C430.427 85.942 430.507 85.922 430.607 85.922H431.579L429.341 88.304C429.285 88.372 429.229 88.432 429.173 88.484C429.121 88.536 429.061 88.582 428.993 88.622C429.065 88.67 429.129 88.726 429.185 88.79C429.245 88.85 429.301 88.92 429.353 89L431.729 92H430.769C430.681 92 430.605 91.984 430.541 91.952C430.481 91.916 430.423 91.862 430.367 91.79L428.369 89.3C428.309 89.216 428.249 89.162 428.189 89.138C428.129 89.11 428.039 89.096 427.919 89.096H427.619V92H426.545V83.162H427.619ZM442.742 87.704C442.742 88.348 442.64 88.934 442.436 89.462C442.232 89.99 441.944 90.442 441.572 90.818C441.2 91.194 440.754 91.486 440.234 91.694C439.714 91.898 439.138 92 438.506 92H435.29V83.402H438.506C439.138 83.402 439.714 83.506 440.234 83.714C440.754 83.918 441.2 84.21 441.572 84.59C441.944 84.966 442.232 85.418 442.436 85.946C442.64 86.474 442.742 87.06 442.742 87.704ZM441.548 87.704C441.548 87.176 441.476 86.704 441.332 86.288C441.188 85.872 440.984 85.52 440.72 85.232C440.456 84.944 440.136 84.724 439.76 84.572C439.384 84.42 438.966 84.344 438.506 84.344H436.46V91.058H438.506C438.966 91.058 439.384 90.982 439.76 90.83C440.136 90.678 440.456 90.46 440.72 90.176C440.984 89.888 441.188 89.536 441.332 89.12C441.476 88.704 441.548 88.232 441.548 87.704ZM446.563 85.826C446.927 85.826 447.263 85.888 447.571 86.012C447.879 86.132 448.145 86.308 448.369 86.54C448.593 86.768 448.767 87.052 448.891 87.392C449.019 87.728 449.083 88.112 449.083 88.544C449.083 88.712 449.065 88.824 449.029 88.88C448.993 88.936 448.925 88.964 448.825 88.964H444.781C444.789 89.348 444.841 89.682 444.937 89.966C445.033 90.25 445.165 90.488 445.333 90.68C445.501 90.868 445.701 91.01 445.933 91.106C446.165 91.198 446.425 91.244 446.713 91.244C446.981 91.244 447.211 91.214 447.403 91.154C447.599 91.09 447.767 91.022 447.907 90.95C448.047 90.878 448.163 90.812 448.255 90.752C448.351 90.688 448.433 90.656 448.501 90.656C448.589 90.656 448.657 90.69 448.705 90.758L449.005 91.148C448.873 91.308 448.715 91.448 448.531 91.568C448.347 91.684 448.149 91.78 447.937 91.856C447.729 91.932 447.513 91.988 447.289 92.024C447.065 92.064 446.843 92.084 446.623 92.084C446.203 92.084 445.815 92.014 445.459 91.874C445.107 91.73 444.801 91.522 444.541 91.25C444.285 90.974 444.085 90.634 443.941 90.23C443.797 89.826 443.725 89.362 443.725 88.838C443.725 88.414 443.789 88.018 443.917 87.65C444.049 87.282 444.237 86.964 444.481 86.696C444.725 86.424 445.023 86.212 445.375 86.06C445.727 85.904 446.123 85.826 446.563 85.826ZM446.587 86.612C446.071 86.612 445.665 86.762 445.369 87.062C445.073 87.358 444.889 87.77 444.817 88.298H448.123C448.123 88.05 448.089 87.824 448.021 87.62C447.953 87.412 447.853 87.234 447.721 87.086C447.589 86.934 447.427 86.818 447.235 86.738C447.047 86.654 446.831 86.612 446.587 86.612ZM449.53 85.922H450.406C450.49 85.922 450.56 85.944 450.616 85.988C450.672 86.032 450.712 86.084 450.736 86.144L452.278 90.056C452.334 90.2 452.378 90.344 452.41 90.488C452.442 90.632 452.472 90.774 452.5 90.914C452.532 90.774 452.566 90.632 452.602 90.488C452.638 90.344 452.684 90.2 452.74 90.056L454.3 86.144C454.324 86.08 454.362 86.028 454.414 85.988C454.47 85.944 454.538 85.922 454.618 85.922H455.452L452.974 92H452.008L449.53 85.922ZM458.692 85.826C459.056 85.826 459.392 85.888 459.7 86.012C460.008 86.132 460.274 86.308 460.498 86.54C460.722 86.768 460.896 87.052 461.02 87.392C461.148 87.728 461.212 88.112 461.212 88.544C461.212 88.712 461.194 88.824 461.158 88.88C461.122 88.936 461.054 88.964 460.954 88.964H456.91C456.918 89.348 456.97 89.682 457.066 89.966C457.162 90.25 457.294 90.488 457.462 90.68C457.63 90.868 457.83 91.01 458.062 91.106C458.294 91.198 458.554 91.244 458.842 91.244C459.11 91.244 459.34 91.214 459.532 91.154C459.728 91.09 459.896 91.022 460.036 90.95C460.176 90.878 460.292 90.812 460.384 90.752C460.48 90.688 460.562 90.656 460.63 90.656C460.718 90.656 460.786 90.69 460.834 90.758L461.134 91.148C461.002 91.308 460.844 91.448 460.66 91.568C460.476 91.684 460.278 91.78 460.066 91.856C459.858 91.932 459.642 91.988 459.418 92.024C459.194 92.064 458.972 92.084 458.752 92.084C458.332 92.084 457.944 92.014 457.588 91.874C457.236 91.73 456.93 91.522 456.67 91.25C456.414 90.974 456.214 90.634 456.07 90.23C455.926 89.826 455.854 89.362 455.854 88.838C455.854 88.414 455.918 88.018 456.046 87.65C456.178 87.282 456.366 86.964 456.61 86.696C456.854 86.424 457.152 86.212 457.504 86.06C457.856 85.904 458.252 85.826 458.692 85.826ZM458.716 86.612C458.2 86.612 457.794 86.762 457.498 87.062C457.202 87.358 457.018 87.77 456.946 88.298H460.252C460.252 88.05 460.218 87.824 460.15 87.62C460.082 87.412 459.982 87.234 459.85 87.086C459.718 86.934 459.556 86.818 459.364 86.738C459.176 86.654 458.96 86.612 458.716 86.612ZM463.767 83.162V92H462.699V83.162H463.767ZM468.109 85.826C468.553 85.826 468.953 85.9 469.309 86.048C469.669 86.196 469.973 86.406 470.221 86.678C470.473 86.95 470.665 87.28 470.797 87.668C470.933 88.052 471.001 88.482 471.001 88.958C471.001 89.438 470.933 89.87 470.797 90.254C470.665 90.638 470.473 90.966 470.221 91.238C469.973 91.51 469.669 91.72 469.309 91.868C468.953 92.012 468.553 92.084 468.109 92.084C467.665 92.084 467.263 92.012 466.903 91.868C466.547 91.72 466.243 91.51 465.991 91.238C465.739 90.966 465.545 90.638 465.409 90.254C465.273 89.87 465.205 89.438 465.205 88.958C465.205 88.482 465.273 88.052 465.409 87.668C465.545 87.28 465.739 86.95 465.991 86.678C466.243 86.406 466.547 86.196 466.903 86.048C467.263 85.9 467.665 85.826 468.109 85.826ZM468.109 91.25C468.709 91.25 469.157 91.05 469.453 90.65C469.749 90.246 469.897 89.684 469.897 88.964C469.897 88.24 469.749 87.676 469.453 87.272C469.157 86.868 468.709 86.666 468.109 86.666C467.805 86.666 467.541 86.718 467.317 86.822C467.093 86.926 466.905 87.076 466.753 87.272C466.605 87.468 466.493 87.71 466.417 87.998C466.345 88.282 466.309 88.604 466.309 88.964C466.309 89.324 466.345 89.646 466.417 89.93C466.493 90.214 466.605 90.454 466.753 90.65C466.905 90.842 467.093 90.99 467.317 91.094C467.541 91.198 467.805 91.25 468.109 91.25ZM472.317 94.058V85.922H472.953C473.105 85.922 473.201 85.996 473.241 86.144L473.331 86.864C473.591 86.548 473.887 86.294 474.219 86.102C474.555 85.91 474.941 85.814 475.377 85.814C475.725 85.814 476.041 85.882 476.325 86.018C476.609 86.15 476.851 86.348 477.051 86.612C477.251 86.872 477.405 87.196 477.513 87.584C477.621 87.972 477.675 88.418 477.675 88.922C477.675 89.37 477.615 89.788 477.495 90.176C477.375 90.56 477.203 90.894 476.979 91.178C476.755 91.458 476.479 91.68 476.151 91.844C475.827 92.004 475.461 92.084 475.053 92.084C474.677 92.084 474.355 92.022 474.087 91.898C473.823 91.774 473.589 91.598 473.385 91.37V94.058H472.317ZM475.023 86.678C474.675 86.678 474.369 86.758 474.105 86.918C473.845 87.078 473.605 87.304 473.385 87.596V90.536C473.581 90.8 473.795 90.986 474.027 91.094C474.263 91.202 474.525 91.256 474.813 91.256C475.377 91.256 475.811 91.054 476.115 90.65C476.419 90.246 476.571 89.67 476.571 88.922C476.571 88.526 476.535 88.186 476.463 87.902C476.395 87.618 476.295 87.386 476.163 87.206C476.031 87.022 475.869 86.888 475.677 86.804C475.485 86.72 475.267 86.678 475.023 86.678ZM481.345 85.826C481.709 85.826 482.045 85.888 482.353 86.012C482.661 86.132 482.927 86.308 483.151 86.54C483.375 86.768 483.549 87.052 483.673 87.392C483.801 87.728 483.865 88.112 483.865 88.544C483.865 88.712 483.847 88.824 483.811 88.88C483.775 88.936 483.707 88.964 483.607 88.964H479.562C479.571 89.348 479.623 89.682 479.719 89.966C479.815 90.25 479.947 90.488 480.115 90.68C480.283 90.868 480.483 91.01 480.715 91.106C480.947 91.198 481.207 91.244 481.495 91.244C481.763 91.244 481.993 91.214 482.185 91.154C482.381 91.09 482.549 91.022 482.689 90.95C482.829 90.878 482.945 90.812 483.037 90.752C483.133 90.688 483.215 90.656 483.283 90.656C483.371 90.656 483.439 90.69 483.487 90.758L483.787 91.148C483.655 91.308 483.497 91.448 483.313 91.568C483.129 91.684 482.931 91.78 482.719 91.856C482.511 91.932 482.295 91.988 482.071 92.024C481.847 92.064 481.625 92.084 481.405 92.084C480.985 92.084 480.597 92.014 480.241 91.874C479.889 91.73 479.583 91.522 479.323 91.25C479.067 90.974 478.867 90.634 478.723 90.23C478.579 89.826 478.507 89.362 478.507 88.838C478.507 88.414 478.571 88.018 478.699 87.65C478.831 87.282 479.019 86.964 479.263 86.696C479.507 86.424 479.805 86.212 480.157 86.06C480.509 85.904 480.905 85.826 481.345 85.826ZM481.368 86.612C480.853 86.612 480.447 86.762 480.151 87.062C479.855 87.358 479.671 87.77 479.599 88.298H482.905C482.905 88.05 482.871 87.824 482.803 87.62C482.735 87.412 482.635 87.234 482.503 87.086C482.371 86.934 482.209 86.818 482.017 86.738C481.829 86.654 481.613 86.612 481.368 86.612ZM485.231 92V85.922H485.843C485.959 85.922 486.039 85.944 486.083 85.988C486.127 86.032 486.157 86.108 486.173 86.216L486.245 87.164C486.453 86.74 486.709 86.41 487.013 86.174C487.321 85.934 487.681 85.814 488.093 85.814C488.261 85.814 488.413 85.834 488.549 85.874C488.685 85.91 488.811 85.962 488.927 86.03L488.789 86.828C488.761 86.928 488.699 86.978 488.603 86.978C488.547 86.978 488.461 86.96 488.345 86.924C488.229 86.884 488.067 86.864 487.859 86.864C487.487 86.864 487.175 86.972 486.923 87.188C486.675 87.404 486.467 87.718 486.299 88.13V92H485.231ZM490.821 82.952C490.937 83.144 491.021 83.336 491.073 83.528C491.125 83.72 491.151 83.912 491.151 84.104C491.151 84.468 491.061 84.816 490.881 85.148C490.705 85.476 490.459 85.778 490.143 86.054L489.813 85.85C489.781 85.83 489.759 85.808 489.747 85.784C489.739 85.76 489.735 85.736 489.735 85.712C489.735 85.656 489.755 85.608 489.795 85.568C489.859 85.492 489.921 85.41 489.981 85.322C490.041 85.23 490.095 85.136 490.143 85.04C490.191 84.94 490.229 84.836 490.257 84.728C490.285 84.62 490.299 84.506 490.299 84.386C490.299 84.258 490.279 84.126 490.239 83.99C490.203 83.854 490.139 83.71 490.047 83.558C490.019 83.514 490.005 83.47 490.005 83.426C490.005 83.33 490.059 83.26 490.167 83.216L490.821 82.952ZM492.645 82.952C492.761 83.144 492.845 83.336 492.897 83.528C492.949 83.72 492.975 83.912 492.975 84.104C492.975 84.468 492.885 84.816 492.705 85.148C492.529 85.476 492.283 85.778 491.967 86.054L491.637 85.85C491.605 85.83 491.583 85.808 491.571 85.784C491.563 85.76 491.559 85.736 491.559 85.712C491.559 85.656 491.579 85.608 491.619 85.568C491.683 85.492 491.745 85.41 491.805 85.322C491.865 85.23 491.919 85.136 491.967 85.04C492.015 84.94 492.053 84.836 492.081 84.728C492.109 84.62 492.123 84.506 492.123 84.386C492.123 84.258 492.103 84.126 492.063 83.99C492.027 83.854 491.963 83.71 491.871 83.558C491.843 83.514 491.829 83.47 491.829 83.426C491.829 83.33 491.883 83.26 491.991 83.216L492.645 82.952Z" fill="#101214"/>
<path d="M247.775 99.6125V76.8375H252.375V77.7125C252.375 77.8958 252.317 78.0417 252.2 78.15C252.092 78.25 251.946 78.3 251.763 78.3H249.65V98.1375H251.763C251.946 98.1375 252.092 98.1875 252.2 98.2875C252.317 98.3958 252.375 98.5458 252.375 98.7375V99.6125H247.775Z" fill="#B01E1E"/>
<path d="M495.125 98.7375C495.125 98.5708 495.179 98.4292 495.288 98.3125C495.404 98.1958 495.554 98.1375 495.738 98.1375H497.85V78.3H495.738C495.554 78.3 495.404 78.2458 495.288 78.1375C495.179 78.0208 495.125 77.8792 495.125 77.7125V76.8375H499.725V99.6125H495.125V98.7375Z" fill="#B01E1E"/>
</svg>
